<svg width="25" height="25" viewBox="0 0 25 25" fill="none" xmlns="http://www.w3.org/2000/svg">
<g clip-path="url(#clip0_2344_2051)">
<path d="M21.9481 2.9873H3.05711C1.37078 2.9873 0 4.35809 0 6.04441V18.9557C0 20.642 1.37078 22.0128 3.05711 22.0128H21.9429C23.6292 22.0128 25 20.642 25 18.9557V6.04959C25.0052 4.36326 23.6344 2.9873 21.9481 2.9873ZM23.6085 18.9557C23.6085 19.8712 22.8636 20.6161 21.9481 20.6161H3.05711C2.14153 20.6161 1.39665 19.8712 1.39665 18.9557V6.04959C1.39665 5.134 2.14153 4.38913 3.05711 4.38913H21.9429C22.8585 4.38913 23.6034 5.134 23.6034 6.04959V18.9557H23.6085Z" fill="#404040"/>
<path d="M15.7674 12.3397L21.8816 6.85654C22.1661 6.5979 22.192 6.15821 21.9334 5.86854C21.6747 5.58404 21.235 5.55817 20.9454 5.81681L12.5138 13.3846L10.8688 11.9155C10.8636 11.9103 10.8585 11.9052 10.8585 11.9C10.8223 11.8638 10.786 11.8327 10.7447 11.8017L4.0511 5.81164C3.76143 5.553 3.32174 5.57886 3.0631 5.86854C2.80446 6.15821 2.83033 6.5979 3.12 6.85654L9.30664 12.3862L3.14587 18.1539C2.86654 18.4177 2.85102 18.8574 3.11483 19.1419C3.2545 19.2867 3.44072 19.3643 3.62694 19.3643C3.79764 19.3643 3.96834 19.3022 4.10283 19.1781L10.3567 13.3277L12.0534 14.8433C12.1879 14.9623 12.3534 15.0192 12.5189 15.0192C12.6845 15.0192 12.8552 14.9571 12.9845 14.8381L14.7277 13.2759L20.9454 19.1833C21.0799 19.3126 21.2557 19.3746 21.4264 19.3746C21.6127 19.3746 21.7937 19.3022 21.9334 19.1574C22.1972 18.8781 22.1868 18.4332 21.9075 18.1694L15.7674 12.3397Z" fill="#404040"/>
</g>
<defs>
<clipPath id="clip0_2344_2051">
<rect width="25" height="25" fill="white"/>
</clipPath>
</defs>
</svg>
