<svg width="25" height="25" viewBox="0 0 25 25" fill="none" xmlns="http://www.w3.org/2000/svg">
<path d="M12.5 0C5.59067 0 0 5.59116 0 12.5C0 19.4093 5.59116 25 12.5 25C19.4093 25 25 19.4088 25 12.5C25 5.59067 19.4088 0 12.5 0ZM12.5 23.0469C6.67026 23.0469 1.95312 18.3293 1.95312 12.5C1.95312 6.67026 6.67065 1.95312 12.5 1.95312C18.3297 1.95312 23.0469 6.67065 23.0469 12.5C23.0469 18.3297 18.3293 23.0469 12.5 23.0469Z" fill="#E5028B"/>
<path d="M12.5 6.29285C11.9606 6.29285 11.5234 6.73005 11.5234 7.26941V13.5581C11.5234 14.0975 11.9606 14.5347 12.5 14.5347C13.0394 14.5347 13.4766 14.0975 13.4766 13.5581V7.26941C13.4766 6.73005 13.0394 6.29285 12.5 6.29285Z" fill="#E5028B"/>
<path d="M12.5 18.3673C13.2281 18.3673 13.8184 17.7771 13.8184 17.049C13.8184 16.3208 13.2281 15.7306 12.5 15.7306C11.7719 15.7306 11.1816 16.3208 11.1816 17.049C11.1816 17.7771 11.7719 18.3673 12.5 18.3673Z" fill="#E5028B"/>
</svg>
