<svg width="25" height="25" viewBox="0 0 25 25" fill="none" xmlns="http://www.w3.org/2000/svg">
<path d="M16.1619 0C11.5028 0 7.71226 3.79053 7.71226 8.44966C7.71226 9.48545 7.89629 10.492 8.25967 11.4479L0.180371 19.5277C0.0648926 19.6433 0 19.7999 0 19.9631V24.3842C0 24.7243 0.275684 25 0.615772 25H4.25913C4.42227 25 4.57871 24.9353 4.69419 24.82L5.92197 23.5941C6.0377 23.4786 6.10269 23.3218 6.10269 23.1583V21.6507H7.6084C7.94849 21.6507 8.22417 21.375 8.22417 21.0349V20.4314H8.82773C9.16777 20.4314 9.44351 20.1557 9.44351 19.8156V18.4906H10.7685C10.9318 18.4906 11.0884 18.4257 11.2039 18.3103L13.1629 16.3512C14.1189 16.7149 15.1256 16.8992 16.1618 16.8992C20.8209 16.8992 24.6115 13.1087 24.6115 8.44956C24.6115 3.79053 20.821 0 16.1619 0ZM16.1619 15.6677C15.154 15.6677 14.1792 15.4641 13.2645 15.0625C13.028 14.9587 12.7616 15.0159 12.5872 15.1858C12.5853 15.1876 12.5834 15.1891 12.5816 15.191L10.5135 17.2591H8.82783C8.48774 17.2591 8.21206 17.5348 8.21206 17.8749V19.1999H7.6085C7.26846 19.1999 6.99272 19.4755 6.99272 19.8156V20.4191H5.48696C5.14692 20.4191 4.87119 20.6948 4.87119 21.0349V22.9029L4.00435 23.7684H1.23164V22.8982L8.75806 15.3719C8.97451 15.1554 8.97451 14.8045 8.75806 14.5881C8.5416 14.3717 8.19082 14.3716 7.97422 14.5881L1.23164 21.3308V20.2183L9.41992 12.0294C9.42178 12.0275 9.42319 12.0258 9.4249 12.024C9.59492 11.8498 9.65225 11.5834 9.54844 11.3467C9.14727 10.432 8.94394 9.45728 8.94394 8.44971C8.94394 4.46963 12.182 1.23159 16.1621 1.23159C20.1421 1.23159 23.3801 4.46958 23.3801 8.44971C23.38 12.4297 20.1419 15.6677 16.1619 15.6677Z" fill="#404040"/>
<path d="M18.7323 3.57153C17.4604 3.57153 16.4258 4.6062 16.4258 5.87803C16.4258 7.14985 17.4604 8.18452 18.7323 8.18452C20.0041 8.18452 21.0388 7.14985 21.0388 5.87803C21.0388 4.6062 20.0041 3.57153 18.7323 3.57153ZM18.7323 6.95298C18.1396 6.95298 17.6573 6.47075 17.6573 5.87803C17.6573 5.2853 18.1396 4.80308 18.7323 4.80308C19.325 4.80308 19.8072 5.2853 19.8072 5.87803C19.8072 6.47075 19.325 6.95298 18.7323 6.95298Z" fill="#404040"/>
</svg>
