<svg width="100" height="100" viewBox="0 0 100 100" fill="none" xmlns="http://www.w3.org/2000/svg">
<path d="M64.4673 33.1954C67.6729 34.5513 70.6375 36.3323 73.3264 38.504V23.1529C73.3264 10.3872 62.9391 0 50.1734 0H49.8172C37.063 0 26.6758 10.3872 26.6758 23.1529V38.504C29.3645 36.3324 32.329 34.5514 35.5348 33.1954C36.3966 32.8278 37.2813 32.4945 38.1661 32.1958V23.1529C38.1661 16.7184 43.3942 11.4903 49.8287 11.4903H50.1849C56.6195 11.4903 61.8476 16.7184 61.8476 23.1529V32.2073C62.7207 32.4945 63.6056 32.8278 64.4673 33.1954Z" fill="#F98731"/>
<path d="M17.4375 67.4366C17.4375 85.4189 32.0187 99.9999 50.001 99.9999C67.9833 99.9999 82.5646 85.4302 82.5646 67.4366C82.5646 58.6005 79.0369 50.5803 73.3264 44.7086C70.1091 41.411 66.2024 38.7911 61.8361 37.0792C58.1707 35.6429 54.172 34.8616 50.0011 34.8616C45.8301 34.8616 41.8315 35.6429 38.1661 37.0792C33.7998 38.7798 29.8931 41.3995 26.6758 44.7086C20.9535 50.5803 17.4375 58.6005 17.4375 67.4366ZM41.613 60.8641C41.7279 56.4174 45.3473 52.7979 49.794 52.6944C54.5164 52.5795 58.3888 56.3829 58.3888 61.0823C58.3888 61.5765 58.3428 62.059 58.2624 62.5186C57.8485 64.8971 56.4354 66.9424 54.4589 68.1834C53.6431 68.7005 53.2295 69.6656 53.4365 70.5964L55.93 82.4199C56.0795 83.1323 55.5393 83.8103 54.8038 83.8103H45.198C44.4627 83.8103 43.9225 83.1438 44.072 82.4199L46.5653 70.5964C46.7606 69.6542 46.3584 68.6889 45.5427 68.1718C43.5664 66.9309 42.1531 64.8971 41.7393 62.5071C41.6474 61.9787 41.6016 61.4271 41.613 60.8641Z" fill="#F98731"/>
</svg>
