<svg width="66" height="110" viewBox="0 0 66 110" fill="none" xmlns="http://www.w3.org/2000/svg">
<path d="M47.4673 43.1954C50.6729 44.5513 53.6375 46.3323 56.3264 48.504V23.1529C56.3264 10.3872 45.9391 0 33.1734 0H32.8172C20.063 0 9.67578 10.3872 9.67578 23.1529V38.504C12.3645 36.3324 15.329 34.5514 18.5348 33.1954C19.3966 32.8278 20.2813 32.4945 21.1661 32.1958V27.6744V23.1529C21.1661 16.7184 26.3942 11.4903 32.8287 11.4903H33.1849C39.6195 11.4903 44.8476 16.7184 44.8476 23.1529V42.2073C45.7207 42.4945 46.6056 42.8278 47.4673 43.1954Z" fill="#61C5BA"/>
<path d="M0.4375 77.4366C0.4375 95.4189 15.0187 110 33.001 110C50.9833 110 65.5646 95.4302 65.5646 77.4366C65.5646 68.6005 62.0369 60.5803 56.3264 54.7086C53.1091 51.411 49.2024 48.7911 44.8361 47.0792C41.1707 45.6429 37.172 44.8616 33.0011 44.8616C28.8301 44.8616 24.8315 45.6429 21.1661 47.0792C16.7998 48.7798 12.8931 51.3995 9.67581 54.7086C3.95353 60.5803 0.4375 68.6005 0.4375 77.4366ZM24.613 70.8641C24.7279 66.4174 28.3473 62.7979 32.794 62.6944C37.5164 62.5795 41.3888 66.3829 41.3888 71.0823C41.3888 71.5765 41.3428 72.059 41.2624 72.5186C40.8485 74.8971 39.4354 76.9424 37.4589 78.1834C36.6431 78.7005 36.2295 79.6656 36.4365 80.5964L38.93 92.4199C39.0795 93.1323 38.5393 93.8103 37.8038 93.8103H28.198C27.4627 93.8103 26.9225 93.1438 27.072 92.4199L29.5653 80.5964C29.7606 79.6542 29.3584 78.6889 28.5427 78.1718C26.5664 76.9309 25.1531 74.8971 24.7393 72.5071C24.6474 71.9787 24.6016 71.4271 24.613 70.8641Z" fill="#61C5BA"/>
</svg>
