<svg width="70" height="90" viewBox="0 0 70 90" fill="none" xmlns="http://www.w3.org/2000/svg">
<path d="M62.1018 41.4318H7.49823C6.51258 41.4283 5.53594 41.6212 4.62466 41.9992C3.71338 42.3772 2.88545 42.933 2.18849 43.6345C1.49153 44.336 0.939337 45.1693 0.563741 46.0865C0.188144 47.0037 -0.00340653 47.9866 4.58488e-05 48.9787V82.4531C4.58488e-05 84.4547 0.79004 86.3742 2.19622 87.7895C3.60241 89.2048 5.50958 90 7.49823 90H62.1018C64.0904 90 65.9976 89.2048 67.4038 87.7895C68.81 86.3742 69.5999 84.4547 69.5999 82.4531V48.9787C69.6034 47.9866 69.4118 47.0037 69.0362 46.0865C68.6607 45.1693 68.1085 44.336 67.4115 43.6345C66.7145 42.933 65.8865 42.3772 64.9753 41.9992C64.064 41.6212 63.0874 41.4283 62.1018 41.4318ZM39.8162 78.6928H29.7838L31.8738 64.9928C30.5286 64.3275 29.4467 63.2235 28.8043 61.8605C28.1619 60.4975 27.9969 58.9557 28.3362 57.4862C28.6755 56.0168 29.499 54.7062 30.6727 53.7679C31.8464 52.8296 33.3011 52.3189 34.8 52.3189C36.2988 52.3189 37.7536 52.8296 38.9273 53.7679C40.101 54.7062 40.9245 56.0168 41.2638 57.4862C41.6031 58.9557 41.4381 60.4975 40.7957 61.8605C40.1533 63.2235 39.0714 64.3275 37.7261 64.9928L39.8162 78.6928Z" fill="#F98731"/>
<path d="M18.9466 36.0675L17.9276 30.8083C17.0511 26.4042 17.9488 21.83 20.423 18.092C22.8973 14.354 26.7457 11.7584 31.1214 10.8762C35.4971 9.99398 40.0417 10.8974 43.7556 13.3878C47.4695 15.8781 50.0484 19.7514 50.9249 24.1555L51.9438 29.2832L61.5843 27.3373L60.5393 22.0782C59.9126 18.5679 58.5967 15.2186 56.6685 12.2263C54.7402 9.2341 52.2384 6.65896 49.3094 4.65161C46.3804 2.64426 43.0831 1.24502 39.6104 0.535744C36.1376 -0.173535 32.5592 -0.178595 29.0845 0.520858C25.6098 1.22031 22.3086 2.61022 19.374 4.60928C16.4395 6.60834 13.9304 9.17639 11.9939 12.1632C10.0573 15.15 8.73198 18.4955 8.09551 22.004C7.45903 25.5125 7.52416 29.1136 8.2871 32.5965L9.30606 37.8556L18.9466 36.0675Z" fill="#F98731"/>
</svg>
