<svg width="241" height="150" viewBox="0 0 241 150" fill="none" xmlns="http://www.w3.org/2000/svg">
<g opacity="0.8">
<path d="M143.728 3.34443C143.585 3.34295 143.446 3.3095 143.334 3.24945C143.223 3.18941 143.145 3.10626 143.113 3.01338C143.092 2.95928 143.088 2.90294 143.101 2.84774C143.114 2.79254 143.143 2.7396 143.187 2.69207C143.231 2.64454 143.29 2.6034 143.358 2.5711C143.427 2.5388 143.505 2.516 143.587 2.50406C145.009 2.28896 146.405 2.00526 147.765 1.65521C147.843 1.63459 147.927 1.62438 148.011 1.62516C148.095 1.62595 148.178 1.63772 148.255 1.65979C148.333 1.68186 148.403 1.7138 148.462 1.75379C148.52 1.79379 148.566 1.84106 148.598 1.8929C148.629 1.94473 148.644 2.00012 148.643 2.0559C148.642 2.11168 148.624 2.16676 148.591 2.218C148.557 2.26923 148.509 2.31562 148.449 2.35451C148.388 2.3934 148.317 2.42402 148.239 2.44464C146.823 2.81969 145.367 3.12331 143.882 3.35291L143.728 3.34443Z" fill="#F98731"/>
<path d="M95.5776 149.983C95.4129 149.981 95.2555 149.938 95.1367 149.863C95.0179 149.787 94.9465 149.685 94.9369 149.576C94.9334 149.52 94.9466 149.464 94.9757 149.412C95.0048 149.36 95.0491 149.311 95.1062 149.27C95.1634 149.229 95.2321 149.196 95.3086 149.173C95.3851 149.15 95.4678 149.136 95.552 149.134C98.5119 149.032 101.536 148.854 104.522 148.591C104.689 148.579 104.857 148.61 104.991 148.678C105.125 148.746 105.214 148.846 105.239 148.956C105.252 149.011 105.247 149.068 105.226 149.122C105.205 149.176 105.168 149.227 105.116 149.271C105.065 149.316 105 149.353 104.927 149.38C104.853 149.408 104.772 149.425 104.688 149.431C101.664 149.703 98.6016 149.881 95.6032 149.975L95.5776 149.983ZM113.517 148.413C113.347 148.425 113.177 148.392 113.043 148.321C112.91 148.251 112.824 148.148 112.806 148.035C112.787 147.922 112.837 147.81 112.943 147.721C113.05 147.633 113.206 147.576 113.376 147.564C116.387 147.131 119.321 146.622 122.089 146.044C122.171 146.022 122.26 146.011 122.348 146.012C122.437 146.014 122.525 146.027 122.605 146.052C122.686 146.077 122.757 146.112 122.816 146.157C122.875 146.201 122.919 146.253 122.945 146.309C122.972 146.365 122.981 146.424 122.971 146.483C122.962 146.541 122.934 146.598 122.889 146.649C122.845 146.699 122.785 146.744 122.714 146.779C122.642 146.813 122.56 146.838 122.474 146.851C119.667 147.437 116.707 147.954 113.645 148.396L113.517 148.413ZM130.751 144.746C130.63 144.746 130.51 144.723 130.408 144.679C130.305 144.636 130.224 144.573 130.175 144.5C130.138 144.449 130.117 144.394 130.112 144.338C130.108 144.282 130.12 144.226 130.149 144.173C130.178 144.12 130.222 144.071 130.279 144.03C130.336 143.988 130.405 143.954 130.482 143.931C132.654 143.288 134.749 142.536 136.748 141.681L138.273 141.002C138.414 140.941 138.586 140.919 138.752 140.941C138.918 140.963 139.063 141.028 139.157 141.121C139.205 141.167 139.239 141.218 139.257 141.272C139.275 141.327 139.276 141.383 139.26 141.437C139.245 141.492 139.213 141.544 139.167 141.59C139.12 141.636 139.061 141.676 138.991 141.707L137.453 142.386C135.41 143.266 133.268 144.04 131.046 144.703C130.966 144.728 130.879 144.743 130.79 144.746H130.751ZM145.833 138.133C145.741 138.133 145.651 138.12 145.567 138.095C145.483 138.07 145.408 138.034 145.346 137.989C145.236 137.903 145.181 137.791 145.193 137.679C145.205 137.566 145.283 137.461 145.41 137.386C147.68 136.089 149.785 134.669 151.702 133.142C151.813 133.056 151.971 133.003 152.141 132.994C152.311 132.984 152.48 133.019 152.612 133.091C152.677 133.126 152.73 133.17 152.769 133.219C152.809 133.268 152.832 133.322 152.84 133.377C152.847 133.433 152.837 133.489 152.811 133.541C152.785 133.594 152.743 133.643 152.689 133.685C150.731 135.237 148.588 136.681 146.282 138.006C146.174 138.081 146.027 138.126 145.872 138.133H145.833ZM157.225 128.881C157.121 128.881 157.02 128.864 156.93 128.83C156.779 128.779 156.665 128.691 156.612 128.584C156.559 128.477 156.572 128.361 156.648 128.261C157.067 127.729 157.451 127.186 157.801 126.631C158.593 125.364 159.235 124.059 159.723 122.727C159.743 122.671 159.78 122.618 159.831 122.572C159.882 122.526 159.946 122.486 160.02 122.456C160.093 122.426 160.175 122.406 160.261 122.397C160.346 122.388 160.434 122.391 160.518 122.404C160.602 122.417 160.681 122.442 160.751 122.475C160.821 122.509 160.881 122.551 160.926 122.6C160.971 122.649 161.001 122.704 161.015 122.76C161.028 122.817 161.025 122.875 161.005 122.93C160.505 124.307 159.841 125.655 159.019 126.962C158.66 127.531 158.263 128.091 157.827 128.66C157.773 128.728 157.691 128.784 157.592 128.823C157.492 128.862 157.379 128.882 157.263 128.881H157.225ZM161.671 117.319C161.586 117.316 161.502 117.302 161.425 117.277C161.349 117.252 161.28 117.217 161.224 117.174C161.168 117.132 161.125 117.082 161.099 117.028C161.072 116.974 161.062 116.917 161.069 116.861C161.184 115.707 161.248 114.484 161.248 113.135C161.248 112.388 161.248 111.649 161.248 110.902C161.245 110.846 161.258 110.789 161.288 110.736C161.318 110.684 161.364 110.635 161.422 110.594C161.481 110.553 161.551 110.52 161.629 110.497C161.707 110.474 161.791 110.462 161.876 110.461C161.961 110.458 162.045 110.467 162.124 110.487C162.203 110.507 162.276 110.538 162.337 110.576C162.398 110.615 162.446 110.662 162.479 110.713C162.513 110.765 162.53 110.821 162.53 110.877C162.53 111.632 162.53 112.379 162.53 113.135C162.53 114.51 162.465 115.749 162.35 116.92C162.34 117.029 162.269 117.13 162.149 117.204C162.03 117.278 161.873 117.32 161.709 117.319H161.671ZM161.428 105.308C161.264 105.308 161.107 105.267 160.988 105.193C160.868 105.119 160.797 105.017 160.787 104.909C160.672 103.212 160.556 101.327 160.556 99.4766V98.8739C160.55 98.8176 160.563 98.761 160.593 98.7082C160.624 98.6554 160.671 98.6076 160.732 98.568C160.793 98.5285 160.866 98.4981 160.946 98.4791C161.026 98.4602 161.112 98.4529 161.197 98.458C161.367 98.458 161.53 98.5027 161.65 98.5823C161.77 98.6619 161.838 98.7698 161.838 98.8824V99.4766C161.838 101.31 161.953 103.152 162.068 104.867C162.072 104.923 162.058 104.978 162.029 105.031C162 105.083 161.956 105.131 161.899 105.172C161.842 105.213 161.773 105.246 161.696 105.269C161.62 105.293 161.537 105.306 161.453 105.308H161.428ZM216.206 100.079C215.04 100.079 213.9 100.079 212.811 100.028C212.727 100.026 212.644 100.013 212.567 99.9896C212.491 99.9663 212.422 99.9331 212.365 99.8921C212.308 99.8511 212.264 99.8031 212.234 99.7507C212.205 99.6983 212.192 99.6427 212.196 99.587C212.199 99.5312 212.219 99.4764 212.254 99.4258C212.289 99.3751 212.339 99.3296 212.401 99.2917C212.463 99.2539 212.536 99.2245 212.615 99.2052C212.694 99.186 212.778 99.1772 212.862 99.1795C213.938 99.1795 215.066 99.2304 216.206 99.2304C218.085 99.2367 219.963 99.1744 221.832 99.0437C222.002 99.0313 222.172 99.0641 222.305 99.135C222.439 99.2058 222.524 99.3089 222.543 99.4214C222.561 99.534 222.512 99.6469 222.405 99.7352C222.298 99.8236 222.143 99.8802 221.973 99.8925C220.07 100.022 218.158 100.085 216.245 100.079H216.206ZM203.79 99.6464C200.791 99.4936 197.742 99.3153 194.743 99.1116C194.659 99.1063 194.577 99.09 194.502 99.0636C194.428 99.0372 194.362 99.0012 194.308 98.9578C194.254 98.9144 194.214 98.8644 194.19 98.8107C194.166 98.7569 194.158 98.7005 194.167 98.6447C194.175 98.5889 194.199 98.5346 194.239 98.4851C194.279 98.4357 194.333 98.3919 194.399 98.3564C194.464 98.3208 194.54 98.2943 194.621 98.2782C194.702 98.2621 194.787 98.2569 194.871 98.2627C197.857 98.4665 200.894 98.6532 203.841 98.806C204.011 98.806 204.174 98.8507 204.294 98.9303C204.414 99.0099 204.482 99.1179 204.482 99.2304C204.482 99.343 204.414 99.451 204.294 99.5305C204.174 99.6101 204.011 99.6549 203.841 99.6549L203.79 99.6464ZM230.699 98.4325C230.576 98.4315 230.456 98.408 230.352 98.3645C230.248 98.3211 230.164 98.2594 230.109 98.1863C230.04 98.0839 230.035 97.9674 230.095 97.8624C230.155 97.7574 230.275 97.6724 230.43 97.6261C233.116 96.8719 235.392 95.5926 236.952 93.9591C236.992 93.9066 237.047 93.8601 237.116 93.8226C237.184 93.7851 237.263 93.7574 237.348 93.7412C237.434 93.7251 237.523 93.7208 237.611 93.7287C237.699 93.7366 237.783 93.7566 237.859 93.7872C237.935 93.8179 238 93.8586 238.051 93.9068C238.101 93.9551 238.136 94.0097 238.153 94.0674C238.17 94.125 238.169 94.1844 238.15 94.2417C238.131 94.2991 238.094 94.3531 238.041 94.4005C236.354 96.1801 233.886 97.5752 230.968 98.3986C230.883 98.4221 230.791 98.4337 230.699 98.4325ZM185.786 98.4325H185.71C182.724 98.1779 179.687 97.8893 176.74 97.5837C176.657 97.5754 176.577 97.5563 176.504 97.5275C176.432 97.4986 176.369 97.4607 176.319 97.4157C176.269 97.3708 176.233 97.3197 176.213 97.2655C176.193 97.2113 176.189 97.155 176.202 97.0998C176.23 96.9893 176.322 96.8904 176.458 96.8239C176.595 96.7574 176.764 96.7285 176.932 96.7433C179.905 97.0489 182.916 97.3375 185.902 97.5922C186.072 97.5989 186.231 97.6501 186.344 97.7345C186.457 97.8188 186.514 97.9295 186.504 98.042C186.494 98.1546 186.417 98.2599 186.289 98.3347C186.162 98.4095 185.995 98.4478 185.825 98.441L185.786 98.4325ZM167.847 96.5905H167.732C164.772 96.234 161.773 95.8435 158.826 95.4361C158.656 95.4136 158.507 95.3473 158.411 95.2517C158.315 95.1562 158.28 95.0393 158.314 94.9268C158.348 94.8142 158.448 94.7152 158.592 94.6515C158.736 94.5878 158.913 94.5647 159.083 94.5872C162.03 94.9947 165.015 95.3851 167.963 95.7417C168.046 95.7509 168.126 95.771 168.198 95.8008C168.269 95.8306 168.331 95.8695 168.38 95.9153C168.429 95.9611 168.464 96.0128 168.482 96.0675C168.501 96.1222 168.503 96.1788 168.488 96.234C168.456 96.3291 168.377 96.4144 168.263 96.476C168.149 96.5377 168.007 96.572 167.86 96.5735L167.847 96.5905ZM150.1 94.1289H149.946C147.025 93.6705 144.052 93.1781 141.143 92.6688C141.059 92.6549 140.98 92.6301 140.91 92.5959C140.841 92.5617 140.782 92.5188 140.737 92.4695C140.693 92.4202 140.663 92.3656 140.65 92.3088C140.638 92.252 140.642 92.194 140.663 92.1383C140.684 92.0826 140.721 92.0301 140.773 91.984C140.825 91.9378 140.889 91.8988 140.964 91.8693C141.038 91.8397 141.121 91.8201 141.206 91.8117C141.292 91.8032 141.38 91.806 141.464 91.82C144.372 92.3293 147.32 92.8216 150.241 93.2715C150.407 93.2997 150.551 93.3693 150.641 93.4657C150.732 93.5622 150.763 93.6781 150.728 93.7893C150.694 93.8806 150.615 93.9619 150.504 94.0202C150.392 94.0786 150.255 94.1109 150.113 94.1119L150.1 94.1289ZM161.863 93.3309H161.761C161.594 93.3121 161.445 93.2512 161.344 93.161C161.244 93.0707 161.2 92.9582 161.223 92.8471C161.671 90.8288 162.431 88.8463 163.491 86.9306C163.548 86.8248 163.667 86.7386 163.821 86.6908C163.975 86.6431 164.151 86.6377 164.311 86.676C164.47 86.7143 164.601 86.793 164.673 86.8949C164.745 86.9967 164.753 87.1134 164.695 87.2192C163.674 89.0775 162.944 91.0003 162.517 92.9574C162.492 93.0579 162.414 93.1491 162.296 93.2146C162.179 93.28 162.03 93.3153 161.876 93.314L161.863 93.3309ZM132.558 91.0645C132.499 91.0723 132.438 91.0723 132.379 91.0645C129.496 90.5128 126.561 89.9186 123.691 89.3074C123.61 89.2911 123.535 89.2641 123.47 89.2281C123.405 89.1921 123.352 89.1478 123.314 89.0979C123.276 89.0479 123.253 88.9934 123.247 88.9375C123.242 88.8816 123.253 88.8255 123.281 88.7726C123.334 88.6657 123.448 88.5771 123.6 88.5262C123.751 88.4752 123.927 88.4662 124.088 88.501C126.946 89.1037 129.854 89.6979 132.738 90.2496C132.901 90.2811 133.038 90.3543 133.12 90.453C133.202 90.5517 133.221 90.6678 133.173 90.7759C133.128 90.857 133.046 90.9268 132.938 90.9755C132.83 91.0242 132.701 91.0494 132.571 91.0475L132.558 91.0645ZM239.31 88.883C239.161 88.881 239.017 88.8454 238.903 88.7822C238.789 88.7189 238.711 88.6317 238.682 88.5349C237.99 86.6636 236.398 84.9922 234.146 83.7729C234.086 83.7342 234.039 83.6879 234.006 83.6369C233.974 83.5859 233.957 83.5311 233.957 83.4758C233.957 83.4205 233.974 83.3657 234.006 83.3147C234.039 83.2636 234.086 83.2174 234.146 83.1787C234.205 83.1389 234.276 83.1073 234.354 83.0858C234.432 83.0643 234.516 83.0532 234.601 83.0532C234.685 83.0532 234.769 83.0643 234.847 83.0858C234.925 83.1073 234.996 83.1389 235.055 83.1787C237.519 84.5174 239.252 86.3542 239.989 88.4076C240.006 88.4622 240.006 88.5185 239.99 88.5733C239.974 88.628 239.942 88.6801 239.896 88.7266C239.849 88.7731 239.789 88.8131 239.72 88.8443C239.65 88.8755 239.571 88.8973 239.489 88.9084L239.31 88.883ZM115.298 87.3975C115.226 87.4063 115.152 87.4063 115.08 87.3975C112.159 86.7099 109.301 85.9969 106.559 85.2839C106.403 85.2405 106.278 85.1588 106.212 85.0559C106.145 84.953 106.141 84.837 106.2 84.7321C106.231 84.6802 106.277 84.6329 106.336 84.5929C106.395 84.5529 106.465 84.5209 106.542 84.4988C106.62 84.4768 106.703 84.465 106.787 84.4642C106.871 84.4635 106.955 84.4737 107.033 84.4944C109.75 85.2074 112.607 85.912 115.503 86.5996C115.662 86.6362 115.793 86.7129 115.867 86.813C115.941 86.9131 115.953 87.0285 115.9 87.1343C115.848 87.2087 115.765 87.2715 115.66 87.3151C115.556 87.3588 115.434 87.3815 115.311 87.3805L115.298 87.3975ZM98.4351 82.958C98.3507 82.9705 98.2632 82.9705 98.1788 82.958C95.3597 82.1091 92.592 81.2603 89.9651 80.369C89.8838 80.3466 89.8103 80.3133 89.7493 80.2712C89.6883 80.2291 89.641 80.1791 89.6105 80.1243C89.5799 80.0696 89.5668 80.0113 89.5718 79.953C89.5768 79.8947 89.5999 79.8378 89.6397 79.7857C89.6794 79.7336 89.735 79.6875 89.8028 79.6503C89.8707 79.6131 89.9494 79.5855 90.0341 79.5694C90.1187 79.5532 90.2075 79.5488 90.2949 79.5564C90.3822 79.564 90.4663 79.5834 90.5418 79.6135C93.1045 80.4624 95.8979 81.3112 98.7041 82.1601C98.8741 82.1837 99.0228 82.2511 99.1177 82.3474C99.2127 82.4437 99.2459 82.5611 99.2103 82.6736C99.1746 82.7862 99.0729 82.8848 98.9275 82.9476C98.7821 83.0105 98.605 83.0326 98.4351 83.0089V82.958ZM168.296 82.2195C168.159 82.2193 168.026 82.1927 167.911 82.1431C167.775 82.0756 167.686 81.975 167.661 81.8636C167.637 81.7522 167.681 81.639 167.783 81.5489C169.459 80.0255 171.518 78.7047 173.87 77.6442L174.536 77.3641C174.608 77.3345 174.687 77.3146 174.77 77.3055C174.853 77.2963 174.938 77.2981 175.021 77.3107C175.103 77.3233 175.18 77.3465 175.249 77.379C175.317 77.4114 175.376 77.4525 175.42 77.4999C175.465 77.5473 175.495 77.6 175.509 77.6551C175.522 77.7102 175.52 77.7665 175.501 77.8209C175.482 77.8753 175.447 77.9266 175.398 77.9721C175.349 78.0175 175.287 78.0561 175.215 78.0856L174.587 78.3488C172.356 79.3546 170.401 80.6064 168.808 82.0497C168.747 82.0977 168.67 82.1363 168.584 82.1627C168.498 82.1891 168.404 82.2027 168.309 82.2025L168.296 82.2195ZM227.072 80.5218C226.965 80.5211 226.86 80.5037 226.765 80.4709C225.689 80.0889 224.638 79.7324 223.638 79.4013C222.011 78.875 220.332 78.3827 218.641 77.9413C218.557 77.9243 218.479 77.896 218.411 77.8581C218.344 77.8202 218.29 77.7736 218.251 77.7211C218.213 77.6686 218.191 77.6113 218.187 77.553C218.184 77.4947 218.198 77.4365 218.23 77.382C218.262 77.3276 218.31 77.278 218.372 77.2366C218.434 77.1951 218.508 77.1625 218.59 77.1409C218.672 77.1193 218.76 77.1091 218.848 77.111C218.936 77.1129 219.023 77.1268 219.102 77.1519C220.832 77.5933 222.549 78.1026 224.228 78.6458C225.227 78.9769 226.304 79.3334 227.393 79.7239C227.54 79.7793 227.649 79.8705 227.697 79.9782C227.745 80.0859 227.728 80.2017 227.649 80.3011C227.592 80.3655 227.509 80.4185 227.409 80.4543C227.31 80.4902 227.198 80.5076 227.085 80.5048L227.072 80.5218ZM82.2769 77.5084C82.1636 77.5099 82.0522 77.4892 81.9565 77.449C79.2784 76.4219 76.6772 75.3523 74.2683 74.2573C74.1439 74.191 74.0615 74.0963 74.037 73.9918C74.0126 73.8873 74.0479 73.7805 74.1361 73.6923C74.2243 73.6042 74.359 73.541 74.5138 73.5152C74.6686 73.4894 74.8324 73.5028 74.973 73.5527C77.4077 74.6308 79.9832 75.7003 82.6613 76.719C82.7816 76.7662 82.8751 76.8383 82.9278 76.9241C82.9805 77.0099 82.9894 77.1047 82.9531 77.1942C82.9168 77.2836 82.8373 77.3627 82.7268 77.4195C82.6163 77.4762 82.4808 77.5074 82.341 77.5084H82.2769ZM210.222 76.1757H210.069C207.154 75.7179 204.196 75.3946 201.214 75.208C201.046 75.1973 200.892 75.1431 200.784 75.0573C200.676 74.9715 200.623 74.8609 200.638 74.7496C200.657 74.6377 200.742 74.5353 200.873 74.4639C201.005 74.3926 201.173 74.3581 201.342 74.3677C204.363 74.5573 207.36 74.8863 210.312 75.3523C210.482 75.3647 210.638 75.4213 210.744 75.5096C210.851 75.598 210.901 75.7109 210.882 75.8234C210.864 75.936 210.778 76.039 210.645 76.1099C210.511 76.1807 210.341 76.2135 210.171 76.2012L210.222 76.1757ZM183.249 75.9041C183.104 75.903 182.963 75.8699 182.85 75.8099C182.736 75.7499 182.656 75.6666 182.621 75.573C182.583 75.4639 182.611 75.349 182.7 75.2536C182.789 75.1582 182.931 75.0899 183.096 75.0637C185.346 74.7112 187.633 74.47 189.938 74.3422C190.681 74.3422 191.437 74.2658 192.181 74.2403C192.266 74.2344 192.351 74.2403 192.433 74.2576C192.514 74.2749 192.589 74.3032 192.653 74.3407C192.717 74.3782 192.768 74.4242 192.804 74.4756C192.839 74.527 192.858 74.5827 192.86 74.6393C192.867 74.7505 192.808 74.859 192.695 74.9416C192.582 75.0242 192.425 75.0741 192.257 75.0807C191.514 75.0807 190.784 75.1486 190.054 75.191C187.814 75.314 185.591 75.5466 183.403 75.8871L183.249 75.9041ZM67.2463 70.811C67.1033 70.8128 66.9635 70.783 66.8491 70.7261C64.4145 69.4613 62.0824 68.1371 59.9169 66.8044C59.8568 66.7649 59.8091 66.718 59.7766 66.6663C59.7441 66.6146 59.7273 66.5591 59.7273 66.5031C59.7273 66.447 59.7441 66.3916 59.7766 66.3398C59.8091 66.2881 59.8568 66.2412 59.9169 66.2017C60.0388 66.1234 60.2019 66.0796 60.3717 66.0796C60.5415 66.0796 60.7047 66.1234 60.8266 66.2017C62.9665 67.5259 65.273 68.8332 67.682 70.081C67.814 70.151 67.8989 70.2528 67.9181 70.3641C67.9373 70.4754 67.8893 70.5872 67.7845 70.6752C67.7159 70.7193 67.6327 70.7523 67.5415 70.7715C67.4503 70.7906 67.3536 70.7954 67.2591 70.7855L67.2463 70.811ZM54.0225 62.6196C53.9307 62.619 53.8401 62.6059 53.7563 62.5811C53.6725 62.5563 53.5974 62.5203 53.5356 62.4753C51.5222 60.9588 49.644 59.366 47.9103 57.7047C47.8144 57.6119 47.7767 57.4979 47.8054 57.387C47.8341 57.2761 47.9269 57.1769 48.0641 57.1105C48.2068 57.0499 48.3789 57.0276 48.5456 57.0481C48.7122 57.0686 48.8608 57.1304 48.9611 57.2209C50.6908 58.8493 52.565 60.4083 54.5735 61.8896C54.6909 61.9689 54.7566 62.0756 54.7566 62.1867C54.7566 62.2978 54.6909 62.4044 54.5735 62.4838C54.5024 62.5281 54.417 62.5611 54.3237 62.5802C54.2304 62.5994 54.1318 62.6041 54.0353 62.5941L54.0225 62.6196ZM43.7715 52.7475C43.6533 52.747 43.5376 52.7245 43.4379 52.6824C43.3381 52.6404 43.2584 52.5806 43.2077 52.5098C41.8029 50.7153 40.5911 48.8574 39.5814 46.9498C39.5278 46.8428 39.5393 46.7262 39.6135 46.6248C39.6877 46.5233 39.8187 46.445 39.9786 46.4066C40.1384 46.3714 40.3126 46.3792 40.4637 46.4285C40.6148 46.4777 40.7305 46.5644 40.7859 46.6697C41.7766 48.5427 42.967 50.3667 44.3481 52.1278C44.4241 52.2281 44.4371 52.3441 44.3843 52.4507C44.3315 52.5573 44.2171 52.6457 44.0662 52.6965C43.9729 52.7216 43.8714 52.7303 43.7715 52.722V52.7475ZM37.9156 41.4068C37.7635 41.4079 37.616 41.3723 37.5005 41.3067C37.3851 41.2412 37.3094 41.1501 37.2877 41.0503C37.1596 40.6004 37.0571 40.1505 36.9546 39.6922C36.6415 38.1958 36.4831 36.687 36.4805 35.1763V34.998C36.4805 34.8855 36.548 34.7775 36.6681 34.6979C36.7883 34.6183 36.9512 34.5736 37.1212 34.5736C37.2911 34.5736 37.454 34.6183 37.5742 34.6979C37.6943 34.7775 37.7618 34.8855 37.7618 34.998V35.1678C37.76 36.6388 37.9141 38.1081 38.2231 39.5648C38.3257 40.0147 38.4282 40.4561 38.5435 40.8975C38.5734 41.0078 38.5364 41.1214 38.4403 41.2137C38.3443 41.3059 38.1972 41.3692 38.0309 41.3899L37.9156 41.4068ZM37.9797 29.4551H37.8644C37.6981 29.4344 37.551 29.3711 37.4549 29.2789C37.3589 29.1866 37.3218 29.073 37.3518 28.9627C37.9089 26.9687 38.719 25.0094 39.7736 23.1057C39.8368 23.0006 39.9584 22.9157 40.1134 22.8683C40.2683 22.8209 40.4449 22.8147 40.6065 22.851C40.7639 22.891 40.8911 22.9704 40.9606 23.0721C41.0302 23.1738 41.0365 23.2895 40.9781 23.3943C39.9423 25.2529 39.1492 27.167 38.6075 29.1155C38.5793 29.2199 38.4919 29.3131 38.3633 29.3762C38.2347 29.4394 38.0745 29.4675 37.9156 29.4551H37.9797ZM44.2328 18.2418C44.1207 18.238 44.0112 18.2177 43.9124 18.1823C43.7661 18.124 43.66 18.0301 43.6169 17.9206C43.5738 17.8112 43.5971 17.6949 43.6818 17.5966C45.2225 15.8429 47.0025 14.1864 48.9995 12.6479C49.1156 12.5785 49.266 12.5396 49.4223 12.5386C49.5786 12.5376 49.7301 12.5744 49.8483 12.6423C49.9664 12.7101 50.043 12.8042 50.0637 12.9069C50.0844 13.0095 50.0477 13.1136 49.9605 13.1996C48.0406 14.7064 46.3254 16.3227 44.835 18.0295C44.7723 18.1032 44.6778 18.1627 44.5636 18.2005C44.4495 18.2383 44.3209 18.2527 44.1943 18.2418H44.2328ZM56.0343 9.20153C55.9019 9.20102 55.773 9.17337 55.6653 9.12237C55.5577 9.07137 55.4765 8.99952 55.4329 8.91671C55.3894 8.83391 55.3856 8.74419 55.4222 8.65991C55.4587 8.57563 55.5338 8.50092 55.637 8.44604C58.0584 7.20072 60.6544 6.11205 63.3894 5.19496C63.5423 5.1443 63.7193 5.13597 63.8816 5.17179C64.0438 5.2076 64.1778 5.28464 64.2543 5.38595C64.3308 5.48726 64.3434 5.60454 64.2893 5.71199C64.2352 5.81944 64.1189 5.90827 63.966 5.95892C61.3059 6.85191 58.7789 7.90916 56.4187 9.11664C56.2979 9.17793 56.1476 9.2081 55.9958 9.20153H56.0343ZM134.736 3.91319C131.685 3.86878 128.642 3.69013 125.626 3.37842C125.456 3.36266 125.302 3.30283 125.199 3.21209C125.096 3.12135 125.051 3.00714 125.075 2.89458C125.099 2.78201 125.189 2.68032 125.326 2.61187C125.463 2.54341 125.635 2.51381 125.805 2.52957C128.774 2.83879 131.771 3.01461 134.775 3.05585C134.945 3.05585 135.108 3.10057 135.228 3.18017C135.348 3.25976 135.416 3.36771 135.416 3.48028C135.416 3.59284 135.348 3.7008 135.228 3.78039C135.108 3.85999 134.945 3.9047 134.775 3.9047L134.736 3.91319ZM72.0259 3.69249C71.9417 3.70141 71.8558 3.69926 71.7729 3.68617C71.69 3.67308 71.6118 3.64931 71.5428 3.6162C71.4738 3.5831 71.4153 3.54131 71.3707 3.49323C71.326 3.44514 71.2961 3.39171 71.2827 3.33598C71.2692 3.28024 71.2725 3.22329 71.2922 3.16839C71.312 3.11348 71.3479 3.06169 71.3978 3.01597C71.4478 2.97026 71.5109 2.93151 71.5835 2.90194C71.656 2.87237 71.7367 2.85256 71.8208 2.84364C74.7203 2.22014 77.6726 1.70996 80.6623 1.31572C80.7457 1.30466 80.8315 1.30469 80.9149 1.31583C80.9982 1.32696 81.0774 1.34897 81.1477 1.38057C81.2181 1.41217 81.2782 1.45274 81.3247 1.4999C81.3712 1.54705 81.403 1.59986 81.4184 1.65525C81.437 1.70944 81.4386 1.76558 81.4233 1.82021C81.4079 1.87484 81.3758 1.9268 81.329 1.97292C81.2822 2.01903 81.2216 2.05832 81.1511 2.08836C81.0805 2.11839 81.0014 2.13855 80.9186 2.14759C77.9773 2.5374 75.0723 3.03905 72.2181 3.65005L72.0259 3.69249ZM116.772 2.3598H116.656C113.901 2.02026 110.788 1.63828 107.687 1.34967C107.521 1.33286 107.372 1.27366 107.271 1.18479C107.17 1.09591 107.126 0.984443 107.148 0.874313C107.158 0.818705 107.184 0.764923 107.226 0.71619C107.267 0.667458 107.323 0.62478 107.39 0.590701C107.457 0.556622 107.534 0.531848 107.615 0.517863C107.697 0.503878 107.782 0.500967 107.866 0.509308C110.941 0.797917 114.068 1.18839 116.836 1.52793C117.002 1.54857 117.149 1.6119 117.245 1.70413C117.341 1.79636 117.378 1.90999 117.348 2.02026C117.326 2.11473 117.258 2.20177 117.154 2.26779C117.049 2.33382 116.915 2.37512 116.772 2.38526V2.3598ZM89.7601 1.26478C89.5902 1.27154 89.4232 1.2333 89.2958 1.15848C89.1685 1.08366 89.0912 0.978394 89.081 0.865829C89.0708 0.753265 89.1285 0.642626 89.2415 0.558255C89.3544 0.473884 89.5133 0.422688 89.6832 0.415934C91.3106 0.297095 93.0532 0.186747 94.8087 0.0933739C95.9363 0.0339545 97.128 0 98.3453 0H98.7682C98.8523 0.00110364 98.9353 0.0131796 99.0124 0.0355349C99.0895 0.0578903 99.1592 0.0900863 99.2175 0.130288C99.2758 0.17049 99.3216 0.217912 99.3522 0.269837C99.3829 0.321763 99.3978 0.377176 99.3961 0.432915C99.3866 0.542639 99.3157 0.646079 99.1972 0.723003C99.0787 0.799928 98.9212 0.844801 98.7554 0.848849H98.3453C97.1665 0.848849 96.0132 0.848848 94.8984 0.933732C93.1301 1.02711 91.4131 1.13746 89.7729 1.26478H89.7601Z" fill="#F98731"/>
<path d="M86.3746 150C84.8498 149.958 83.3377 149.881 81.877 149.788C81.7932 149.784 81.7116 149.768 81.637 149.743C81.5624 149.717 81.4962 149.682 81.4424 149.639C81.3886 149.597 81.3484 149.547 81.324 149.494C81.2996 149.441 81.2915 149.385 81.3003 149.329C81.3049 149.273 81.3269 149.219 81.3648 149.169C81.4027 149.119 81.4558 149.074 81.5208 149.039C81.5857 149.003 81.6611 148.976 81.7422 148.96C81.8233 148.945 81.9085 148.94 81.9923 148.947C83.4403 149.041 84.9267 149.109 86.4387 149.151C86.6086 149.151 86.7715 149.196 86.8917 149.275C87.0119 149.355 87.0794 149.463 87.0794 149.576C87.0794 149.688 87.0119 149.796 86.8917 149.876C86.7715 149.955 86.6086 150 86.4387 150H86.3746Z" fill="#F98731"/>
<g opacity="0.6">
<path opacity="0.6" d="M143.728 3.34443C143.585 3.34295 143.446 3.3095 143.334 3.24945C143.223 3.18941 143.145 3.10626 143.113 3.01338C143.092 2.95928 143.088 2.90294 143.101 2.84774C143.114 2.79254 143.143 2.7396 143.187 2.69207C143.231 2.64454 143.29 2.6034 143.358 2.5711C143.427 2.5388 143.505 2.516 143.587 2.50406C145.009 2.28896 146.405 2.00526 147.765 1.65521C147.843 1.63459 147.927 1.62438 148.011 1.62516C148.095 1.62595 148.178 1.63772 148.255 1.65979C148.333 1.68186 148.403 1.7138 148.462 1.75379C148.52 1.79379 148.566 1.84106 148.598 1.8929C148.629 1.94473 148.644 2.00012 148.643 2.0559C148.642 2.11168 148.624 2.16676 148.591 2.218C148.557 2.26923 148.509 2.31562 148.449 2.35451C148.388 2.3934 148.317 2.42402 148.239 2.44464C146.823 2.81969 145.367 3.12331 143.882 3.35291L143.728 3.34443Z" fill="white"/>
<path opacity="0.6" d="M95.5776 149.983C95.4129 149.981 95.2555 149.938 95.1367 149.863C95.0179 149.787 94.9465 149.685 94.9369 149.576C94.9334 149.52 94.9466 149.464 94.9757 149.412C95.0048 149.36 95.0491 149.311 95.1062 149.27C95.1634 149.229 95.2321 149.196 95.3086 149.173C95.3851 149.15 95.4678 149.136 95.552 149.134C98.5119 149.032 101.536 148.854 104.522 148.591C104.689 148.579 104.857 148.61 104.991 148.678C105.125 148.746 105.214 148.846 105.239 148.956C105.252 149.011 105.247 149.068 105.226 149.122C105.205 149.176 105.168 149.227 105.116 149.271C105.065 149.316 105 149.353 104.927 149.38C104.853 149.408 104.772 149.425 104.688 149.431C101.664 149.703 98.6016 149.881 95.6032 149.975L95.5776 149.983ZM113.517 148.413C113.347 148.425 113.177 148.392 113.043 148.321C112.91 148.251 112.824 148.148 112.806 148.035C112.787 147.922 112.837 147.81 112.943 147.721C113.05 147.633 113.206 147.576 113.376 147.564C116.387 147.131 119.321 146.622 122.089 146.044C122.171 146.022 122.26 146.011 122.348 146.012C122.437 146.014 122.525 146.027 122.605 146.052C122.686 146.077 122.757 146.112 122.816 146.157C122.875 146.201 122.919 146.253 122.945 146.309C122.972 146.365 122.981 146.424 122.971 146.483C122.962 146.541 122.934 146.598 122.889 146.649C122.845 146.699 122.785 146.744 122.714 146.779C122.642 146.813 122.56 146.838 122.474 146.851C119.667 147.437 116.707 147.954 113.645 148.396L113.517 148.413ZM130.751 144.746C130.63 144.746 130.51 144.723 130.408 144.679C130.305 144.636 130.224 144.573 130.175 144.5C130.138 144.449 130.117 144.394 130.112 144.338C130.108 144.282 130.12 144.226 130.149 144.173C130.178 144.12 130.222 144.071 130.279 144.03C130.336 143.988 130.405 143.954 130.482 143.931C132.654 143.288 134.749 142.536 136.748 141.681L138.273 141.002C138.414 140.941 138.586 140.919 138.752 140.941C138.918 140.963 139.063 141.028 139.157 141.121C139.205 141.167 139.239 141.218 139.257 141.272C139.275 141.327 139.276 141.383 139.26 141.437C139.245 141.492 139.213 141.544 139.167 141.59C139.12 141.636 139.061 141.676 138.991 141.707L137.453 142.386C135.41 143.266 133.268 144.04 131.046 144.703C130.966 144.728 130.879 144.743 130.79 144.746H130.751ZM145.833 138.133C145.741 138.133 145.651 138.12 145.567 138.095C145.483 138.07 145.408 138.034 145.346 137.989C145.236 137.903 145.181 137.791 145.193 137.679C145.205 137.566 145.283 137.461 145.41 137.386C147.68 136.089 149.785 134.669 151.702 133.142C151.813 133.056 151.971 133.003 152.141 132.994C152.311 132.984 152.48 133.019 152.612 133.091C152.677 133.126 152.73 133.17 152.769 133.219C152.809 133.268 152.832 133.322 152.84 133.377C152.847 133.433 152.837 133.489 152.811 133.541C152.785 133.594 152.743 133.643 152.689 133.685C150.731 135.237 148.588 136.681 146.282 138.006C146.174 138.081 146.027 138.126 145.872 138.133H145.833ZM157.225 128.881C157.121 128.881 157.02 128.864 156.93 128.83C156.779 128.779 156.665 128.691 156.612 128.584C156.559 128.477 156.572 128.361 156.648 128.261C157.067 127.729 157.451 127.186 157.801 126.631C158.593 125.364 159.235 124.059 159.723 122.727C159.743 122.671 159.78 122.618 159.831 122.572C159.882 122.526 159.946 122.486 160.02 122.456C160.093 122.426 160.175 122.406 160.261 122.397C160.346 122.388 160.434 122.391 160.518 122.404C160.602 122.417 160.681 122.442 160.751 122.475C160.821 122.509 160.881 122.551 160.926 122.6C160.971 122.649 161.001 122.704 161.015 122.76C161.028 122.817 161.025 122.875 161.005 122.93C160.505 124.307 159.841 125.655 159.019 126.962C158.66 127.531 158.263 128.091 157.827 128.66C157.773 128.728 157.691 128.784 157.592 128.823C157.492 128.862 157.379 128.882 157.263 128.881H157.225ZM161.671 117.319C161.586 117.316 161.502 117.302 161.425 117.277C161.349 117.252 161.28 117.217 161.224 117.174C161.168 117.132 161.125 117.082 161.099 117.028C161.072 116.974 161.062 116.917 161.069 116.861C161.184 115.707 161.248 114.484 161.248 113.135C161.248 112.388 161.248 111.649 161.248 110.902C161.245 110.846 161.258 110.789 161.288 110.736C161.318 110.684 161.364 110.635 161.422 110.594C161.481 110.553 161.551 110.52 161.629 110.497C161.707 110.474 161.791 110.462 161.876 110.461C161.961 110.458 162.045 110.467 162.124 110.487C162.203 110.507 162.276 110.538 162.337 110.576C162.398 110.615 162.446 110.662 162.479 110.713C162.513 110.765 162.53 110.821 162.53 110.877C162.53 111.632 162.53 112.379 162.53 113.135C162.53 114.51 162.465 115.749 162.35 116.92C162.34 117.029 162.269 117.13 162.149 117.204C162.03 117.278 161.873 117.32 161.709 117.319H161.671ZM161.428 105.308C161.264 105.308 161.107 105.267 160.988 105.193C160.868 105.119 160.797 105.017 160.787 104.909C160.672 103.212 160.556 101.327 160.556 99.4766V98.8739C160.55 98.8176 160.563 98.761 160.593 98.7082C160.624 98.6554 160.671 98.6076 160.732 98.568C160.793 98.5285 160.866 98.4981 160.946 98.4791C161.026 98.4602 161.112 98.4529 161.197 98.458C161.367 98.458 161.53 98.5027 161.65 98.5823C161.77 98.6619 161.838 98.7698 161.838 98.8824V99.4766C161.838 101.31 161.953 103.152 162.068 104.867C162.072 104.923 162.058 104.978 162.029 105.031C162 105.083 161.956 105.131 161.899 105.172C161.842 105.213 161.773 105.246 161.696 105.269C161.62 105.293 161.537 105.306 161.453 105.308H161.428ZM216.206 100.079C215.04 100.079 213.9 100.079 212.811 100.028C212.727 100.026 212.644 100.013 212.567 99.9896C212.491 99.9663 212.422 99.9331 212.365 99.8921C212.308 99.8511 212.264 99.8031 212.234 99.7507C212.205 99.6983 212.192 99.6427 212.196 99.587C212.199 99.5312 212.219 99.4764 212.254 99.4258C212.289 99.3751 212.339 99.3296 212.401 99.2917C212.463 99.2539 212.536 99.2245 212.615 99.2052C212.694 99.186 212.778 99.1772 212.862 99.1795C213.938 99.1795 215.066 99.2304 216.206 99.2304C218.085 99.2367 219.963 99.1744 221.832 99.0437C222.002 99.0313 222.172 99.0641 222.305 99.135C222.439 99.2058 222.524 99.3089 222.543 99.4214C222.561 99.534 222.512 99.6469 222.405 99.7352C222.298 99.8236 222.143 99.8802 221.973 99.8925C220.07 100.022 218.158 100.085 216.245 100.079H216.206ZM203.79 99.6464C200.791 99.4936 197.742 99.3153 194.743 99.1116C194.659 99.1063 194.577 99.09 194.502 99.0636C194.428 99.0372 194.362 99.0012 194.308 98.9578C194.254 98.9144 194.214 98.8644 194.19 98.8107C194.166 98.7569 194.158 98.7005 194.167 98.6447C194.175 98.5889 194.199 98.5346 194.239 98.4851C194.279 98.4357 194.333 98.3919 194.399 98.3564C194.464 98.3208 194.54 98.2943 194.621 98.2782C194.702 98.2621 194.787 98.2569 194.871 98.2627C197.857 98.4665 200.894 98.6532 203.841 98.806C204.011 98.806 204.174 98.8507 204.294 98.9303C204.414 99.0099 204.482 99.1179 204.482 99.2304C204.482 99.343 204.414 99.451 204.294 99.5305C204.174 99.6101 204.011 99.6549 203.841 99.6549L203.79 99.6464ZM230.699 98.4325C230.576 98.4315 230.456 98.408 230.352 98.3645C230.248 98.3211 230.164 98.2594 230.109 98.1863C230.04 98.0839 230.035 97.9674 230.095 97.8624C230.155 97.7574 230.275 97.6724 230.43 97.6261C233.116 96.8719 235.392 95.5926 236.952 93.9591C236.992 93.9066 237.047 93.8601 237.116 93.8226C237.184 93.7851 237.263 93.7574 237.348 93.7412C237.434 93.7251 237.523 93.7208 237.611 93.7287C237.699 93.7366 237.783 93.7566 237.859 93.7872C237.935 93.8179 238 93.8586 238.051 93.9068C238.101 93.9551 238.136 94.0097 238.153 94.0674C238.17 94.125 238.169 94.1844 238.15 94.2417C238.131 94.2991 238.094 94.3531 238.041 94.4005C236.354 96.1801 233.886 97.5752 230.968 98.3986C230.883 98.4221 230.791 98.4337 230.699 98.4325ZM185.786 98.4325H185.71C182.724 98.1779 179.687 97.8893 176.74 97.5837C176.657 97.5754 176.577 97.5563 176.504 97.5275C176.432 97.4986 176.369 97.4607 176.319 97.4157C176.269 97.3708 176.233 97.3197 176.213 97.2655C176.193 97.2113 176.189 97.155 176.202 97.0998C176.23 96.9893 176.322 96.8904 176.458 96.8239C176.595 96.7574 176.764 96.7285 176.932 96.7433C179.905 97.0489 182.916 97.3375 185.902 97.5922C186.072 97.5989 186.231 97.6501 186.344 97.7345C186.457 97.8188 186.514 97.9295 186.504 98.042C186.494 98.1546 186.417 98.2599 186.289 98.3347C186.162 98.4095 185.995 98.4478 185.825 98.441L185.786 98.4325ZM167.847 96.5905H167.732C164.772 96.234 161.773 95.8435 158.826 95.4361C158.656 95.4136 158.507 95.3473 158.411 95.2517C158.315 95.1562 158.28 95.0393 158.314 94.9268C158.348 94.8142 158.448 94.7152 158.592 94.6515C158.736 94.5878 158.913 94.5647 159.083 94.5872C162.03 94.9947 165.015 95.3851 167.963 95.7417C168.046 95.7509 168.126 95.771 168.198 95.8008C168.269 95.8306 168.331 95.8695 168.38 95.9153C168.429 95.9611 168.464 96.0128 168.482 96.0675C168.501 96.1222 168.503 96.1788 168.488 96.234C168.456 96.3291 168.377 96.4144 168.263 96.476C168.149 96.5377 168.007 96.572 167.86 96.5735L167.847 96.5905ZM150.1 94.1289H149.946C147.025 93.6705 144.052 93.1781 141.143 92.6688C141.059 92.6549 140.98 92.6301 140.91 92.5959C140.841 92.5617 140.782 92.5188 140.737 92.4695C140.693 92.4202 140.663 92.3656 140.65 92.3088C140.638 92.252 140.642 92.194 140.663 92.1383C140.684 92.0826 140.721 92.0301 140.773 91.984C140.825 91.9378 140.889 91.8988 140.964 91.8693C141.038 91.8397 141.121 91.8201 141.206 91.8117C141.292 91.8032 141.38 91.806 141.464 91.82C144.372 92.3293 147.32 92.8216 150.241 93.2715C150.407 93.2997 150.551 93.3693 150.641 93.4657C150.732 93.5622 150.763 93.6781 150.728 93.7893C150.694 93.8806 150.615 93.9619 150.504 94.0202C150.392 94.0786 150.255 94.1109 150.113 94.1119L150.1 94.1289ZM161.863 93.3309H161.761C161.594 93.3121 161.445 93.2512 161.344 93.161C161.244 93.0707 161.2 92.9582 161.223 92.8471C161.671 90.8288 162.431 88.8463 163.491 86.9306C163.548 86.8248 163.667 86.7386 163.821 86.6908C163.975 86.6431 164.151 86.6377 164.311 86.676C164.47 86.7143 164.601 86.793 164.673 86.8949C164.745 86.9967 164.753 87.1134 164.695 87.2192C163.674 89.0775 162.944 91.0003 162.517 92.9574C162.492 93.0579 162.414 93.1491 162.296 93.2146C162.179 93.28 162.03 93.3153 161.876 93.314L161.863 93.3309ZM132.558 91.0645C132.499 91.0723 132.438 91.0723 132.379 91.0645C129.496 90.5128 126.561 89.9186 123.691 89.3074C123.61 89.2911 123.535 89.2641 123.47 89.2281C123.405 89.1921 123.352 89.1478 123.314 89.0979C123.276 89.0479 123.253 88.9934 123.247 88.9375C123.242 88.8816 123.253 88.8255 123.281 88.7726C123.334 88.6657 123.448 88.5771 123.6 88.5262C123.751 88.4752 123.927 88.4662 124.088 88.501C126.946 89.1037 129.854 89.6979 132.738 90.2496C132.901 90.2811 133.038 90.3543 133.12 90.453C133.202 90.5517 133.221 90.6678 133.173 90.7759C133.128 90.857 133.046 90.9268 132.938 90.9755C132.83 91.0242 132.701 91.0494 132.571 91.0475L132.558 91.0645ZM239.31 88.883C239.161 88.881 239.017 88.8454 238.903 88.7822C238.789 88.7189 238.711 88.6317 238.682 88.5349C237.99 86.6636 236.398 84.9922 234.146 83.7729C234.086 83.7342 234.039 83.6879 234.006 83.6369C233.974 83.5859 233.957 83.5311 233.957 83.4758C233.957 83.4205 233.974 83.3657 234.006 83.3147C234.039 83.2636 234.086 83.2174 234.146 83.1787C234.205 83.1389 234.276 83.1073 234.354 83.0858C234.432 83.0643 234.516 83.0532 234.601 83.0532C234.685 83.0532 234.769 83.0643 234.847 83.0858C234.925 83.1073 234.996 83.1389 235.055 83.1787C237.519 84.5174 239.252 86.3542 239.989 88.4076C240.006 88.4622 240.006 88.5185 239.99 88.5733C239.974 88.628 239.942 88.6801 239.896 88.7266C239.849 88.7731 239.789 88.8131 239.72 88.8443C239.65 88.8755 239.571 88.8973 239.489 88.9084L239.31 88.883ZM115.298 87.3975C115.226 87.4063 115.152 87.4063 115.08 87.3975C112.159 86.7099 109.301 85.9969 106.559 85.2839C106.403 85.2405 106.278 85.1588 106.212 85.0559C106.145 84.953 106.141 84.837 106.2 84.7321C106.231 84.6802 106.277 84.6329 106.336 84.5929C106.395 84.5529 106.465 84.5209 106.542 84.4988C106.62 84.4768 106.703 84.465 106.787 84.4642C106.871 84.4635 106.955 84.4737 107.033 84.4944C109.75 85.2074 112.607 85.912 115.503 86.5996C115.662 86.6362 115.793 86.7129 115.867 86.813C115.941 86.9131 115.953 87.0285 115.9 87.1343C115.848 87.2087 115.765 87.2715 115.66 87.3151C115.556 87.3588 115.434 87.3815 115.311 87.3805L115.298 87.3975ZM98.4351 82.958C98.3507 82.9705 98.2632 82.9705 98.1788 82.958C95.3597 82.1091 92.592 81.2603 89.9651 80.369C89.8838 80.3466 89.8103 80.3133 89.7493 80.2712C89.6883 80.2291 89.641 80.1791 89.6105 80.1243C89.5799 80.0696 89.5668 80.0113 89.5718 79.953C89.5768 79.8947 89.5999 79.8378 89.6397 79.7857C89.6794 79.7336 89.735 79.6875 89.8028 79.6503C89.8707 79.6131 89.9494 79.5855 90.0341 79.5694C90.1187 79.5532 90.2075 79.5488 90.2949 79.5564C90.3822 79.564 90.4663 79.5834 90.5418 79.6135C93.1045 80.4624 95.8979 81.3112 98.7041 82.1601C98.8741 82.1837 99.0228 82.2511 99.1177 82.3474C99.2127 82.4437 99.2459 82.5611 99.2103 82.6736C99.1746 82.7862 99.0729 82.8848 98.9275 82.9476C98.7821 83.0105 98.605 83.0326 98.4351 83.0089V82.958ZM168.296 82.2195C168.159 82.2193 168.026 82.1927 167.911 82.1431C167.775 82.0756 167.686 81.975 167.661 81.8636C167.637 81.7522 167.681 81.639 167.783 81.5489C169.459 80.0255 171.518 78.7047 173.87 77.6442L174.536 77.3641C174.608 77.3345 174.687 77.3146 174.77 77.3055C174.853 77.2963 174.938 77.2981 175.021 77.3107C175.103 77.3233 175.18 77.3465 175.249 77.379C175.317 77.4114 175.376 77.4525 175.42 77.4999C175.465 77.5473 175.495 77.6 175.509 77.6551C175.522 77.7102 175.52 77.7665 175.501 77.8209C175.482 77.8753 175.447 77.9266 175.398 77.9721C175.349 78.0175 175.287 78.0561 175.215 78.0856L174.587 78.3488C172.356 79.3546 170.401 80.6064 168.808 82.0497C168.747 82.0977 168.67 82.1363 168.584 82.1627C168.498 82.1891 168.404 82.2027 168.309 82.2025L168.296 82.2195ZM227.072 80.5218C226.965 80.5211 226.86 80.5037 226.765 80.4709C225.689 80.0889 224.638 79.7324 223.638 79.4013C222.011 78.875 220.332 78.3827 218.641 77.9413C218.557 77.9243 218.479 77.896 218.411 77.8581C218.344 77.8202 218.29 77.7736 218.251 77.7211C218.213 77.6686 218.191 77.6113 218.187 77.553C218.184 77.4947 218.198 77.4365 218.23 77.382C218.262 77.3276 218.31 77.278 218.372 77.2366C218.434 77.1951 218.508 77.1625 218.59 77.1409C218.672 77.1193 218.76 77.1091 218.848 77.111C218.936 77.1129 219.023 77.1268 219.102 77.1519C220.832 77.5933 222.549 78.1026 224.228 78.6458C225.227 78.9769 226.304 79.3334 227.393 79.7239C227.54 79.7793 227.649 79.8705 227.697 79.9782C227.745 80.0859 227.728 80.2017 227.649 80.3011C227.592 80.3655 227.509 80.4185 227.409 80.4543C227.31 80.4902 227.198 80.5076 227.085 80.5048L227.072 80.5218ZM82.2769 77.5084C82.1636 77.5099 82.0522 77.4892 81.9565 77.449C79.2784 76.4219 76.6772 75.3523 74.2683 74.2573C74.1439 74.191 74.0615 74.0963 74.037 73.9918C74.0126 73.8873 74.0479 73.7805 74.1361 73.6923C74.2243 73.6042 74.359 73.541 74.5138 73.5152C74.6686 73.4894 74.8324 73.5028 74.973 73.5527C77.4077 74.6308 79.9832 75.7003 82.6613 76.719C82.7816 76.7662 82.8751 76.8383 82.9278 76.9241C82.9805 77.0099 82.9894 77.1047 82.9531 77.1942C82.9168 77.2836 82.8373 77.3627 82.7268 77.4195C82.6163 77.4762 82.4808 77.5074 82.341 77.5084H82.2769ZM210.222 76.1757H210.069C207.154 75.7179 204.196 75.3946 201.214 75.208C201.046 75.1973 200.892 75.1431 200.784 75.0573C200.676 74.9715 200.623 74.8609 200.638 74.7496C200.657 74.6377 200.742 74.5353 200.873 74.4639C201.005 74.3926 201.173 74.3581 201.342 74.3677C204.363 74.5573 207.36 74.8863 210.312 75.3523C210.482 75.3647 210.638 75.4213 210.744 75.5096C210.851 75.598 210.901 75.7109 210.882 75.8234C210.864 75.936 210.778 76.039 210.645 76.1099C210.511 76.1807 210.341 76.2135 210.171 76.2012L210.222 76.1757ZM183.249 75.9041C183.104 75.903 182.963 75.8699 182.85 75.8099C182.736 75.7499 182.656 75.6666 182.621 75.573C182.583 75.4639 182.611 75.349 182.7 75.2536C182.789 75.1582 182.931 75.0899 183.096 75.0637C185.346 74.7112 187.633 74.47 189.938 74.3422C190.681 74.3422 191.437 74.2658 192.181 74.2403C192.266 74.2344 192.351 74.2403 192.433 74.2576C192.514 74.2749 192.589 74.3032 192.653 74.3407C192.717 74.3782 192.768 74.4242 192.804 74.4756C192.839 74.527 192.858 74.5827 192.86 74.6393C192.867 74.7505 192.808 74.859 192.695 74.9416C192.582 75.0242 192.425 75.0741 192.257 75.0807C191.514 75.0807 190.784 75.1486 190.054 75.191C187.814 75.314 185.591 75.5466 183.403 75.8871L183.249 75.9041ZM67.2463 70.811C67.1033 70.8128 66.9635 70.783 66.8491 70.7261C64.4145 69.4613 62.0824 68.1371 59.9169 66.8044C59.8568 66.7649 59.8091 66.718 59.7766 66.6663C59.7441 66.6146 59.7273 66.5591 59.7273 66.5031C59.7273 66.447 59.7441 66.3916 59.7766 66.3398C59.8091 66.2881 59.8568 66.2412 59.9169 66.2017C60.0388 66.1234 60.2019 66.0796 60.3717 66.0796C60.5415 66.0796 60.7047 66.1234 60.8266 66.2017C62.9665 67.5259 65.273 68.8332 67.682 70.081C67.814 70.151 67.8989 70.2528 67.9181 70.3641C67.9373 70.4754 67.8893 70.5872 67.7845 70.6752C67.7159 70.7193 67.6327 70.7523 67.5415 70.7715C67.4503 70.7906 67.3536 70.7954 67.2591 70.7855L67.2463 70.811ZM54.0225 62.6196C53.9307 62.619 53.8401 62.6059 53.7563 62.5811C53.6725 62.5563 53.5974 62.5203 53.5356 62.4753C51.5222 60.9588 49.644 59.366 47.9103 57.7047C47.8144 57.6119 47.7767 57.4979 47.8054 57.387C47.8341 57.2761 47.9269 57.1769 48.0641 57.1105C48.2068 57.0499 48.3789 57.0276 48.5456 57.0481C48.7122 57.0686 48.8608 57.1304 48.9611 57.2209C50.6908 58.8493 52.565 60.4083 54.5735 61.8896C54.6909 61.9689 54.7566 62.0756 54.7566 62.1867C54.7566 62.2978 54.6909 62.4044 54.5735 62.4838C54.5024 62.5281 54.417 62.5611 54.3237 62.5802C54.2304 62.5994 54.1318 62.6041 54.0353 62.5941L54.0225 62.6196ZM43.7715 52.7475C43.6533 52.747 43.5376 52.7245 43.4379 52.6824C43.3381 52.6404 43.2584 52.5806 43.2077 52.5098C41.8029 50.7153 40.5911 48.8574 39.5814 46.9498C39.5278 46.8428 39.5393 46.7262 39.6135 46.6248C39.6877 46.5233 39.8187 46.445 39.9786 46.4066C40.1384 46.3714 40.3126 46.3792 40.4637 46.4285C40.6148 46.4777 40.7305 46.5644 40.7859 46.6697C41.7766 48.5427 42.967 50.3667 44.3481 52.1278C44.4241 52.2281 44.4371 52.3441 44.3843 52.4507C44.3315 52.5573 44.2171 52.6457 44.0662 52.6965C43.9729 52.7216 43.8714 52.7303 43.7715 52.722V52.7475ZM37.9156 41.4068C37.7635 41.4079 37.616 41.3723 37.5005 41.3067C37.3851 41.2412 37.3094 41.1501 37.2877 41.0503C37.1596 40.6004 37.0571 40.1505 36.9546 39.6922C36.6415 38.1958 36.4831 36.687 36.4805 35.1763V34.998C36.4805 34.8855 36.548 34.7775 36.6681 34.6979C36.7883 34.6183 36.9512 34.5736 37.1212 34.5736C37.2911 34.5736 37.454 34.6183 37.5742 34.6979C37.6943 34.7775 37.7618 34.8855 37.7618 34.998V35.1678C37.76 36.6388 37.9141 38.1081 38.2231 39.5648C38.3257 40.0147 38.4282 40.4561 38.5435 40.8975C38.5734 41.0078 38.5364 41.1214 38.4403 41.2137C38.3443 41.3059 38.1972 41.3692 38.0309 41.3899L37.9156 41.4068ZM37.9797 29.4551H37.8644C37.6981 29.4344 37.551 29.3711 37.4549 29.2789C37.3589 29.1866 37.3218 29.073 37.3518 28.9627C37.9089 26.9687 38.719 25.0094 39.7736 23.1057C39.8368 23.0006 39.9584 22.9157 40.1134 22.8683C40.2683 22.8209 40.4449 22.8147 40.6065 22.851C40.7639 22.891 40.8911 22.9704 40.9606 23.0721C41.0302 23.1738 41.0365 23.2895 40.9781 23.3943C39.9423 25.2529 39.1492 27.167 38.6075 29.1155C38.5793 29.2199 38.4919 29.3131 38.3633 29.3762C38.2347 29.4394 38.0745 29.4675 37.9156 29.4551H37.9797ZM44.2328 18.2418C44.1207 18.238 44.0112 18.2177 43.9124 18.1823C43.7661 18.124 43.66 18.0301 43.6169 17.9206C43.5738 17.8112 43.5971 17.6949 43.6818 17.5966C45.2225 15.8429 47.0025 14.1864 48.9995 12.6479C49.1156 12.5785 49.266 12.5396 49.4223 12.5386C49.5786 12.5376 49.7301 12.5744 49.8483 12.6423C49.9664 12.7101 50.043 12.8042 50.0637 12.9069C50.0844 13.0095 50.0477 13.1136 49.9605 13.1996C48.0406 14.7064 46.3254 16.3227 44.835 18.0295C44.7723 18.1032 44.6778 18.1627 44.5636 18.2005C44.4495 18.2383 44.3209 18.2527 44.1943 18.2418H44.2328ZM56.0343 9.20153C55.9019 9.20102 55.773 9.17337 55.6653 9.12237C55.5577 9.07137 55.4765 8.99952 55.4329 8.91671C55.3894 8.83391 55.3856 8.74419 55.4222 8.65991C55.4587 8.57563 55.5338 8.50092 55.637 8.44604C58.0584 7.20072 60.6544 6.11205 63.3894 5.19496C63.5423 5.1443 63.7193 5.13597 63.8816 5.17179C64.0438 5.2076 64.1778 5.28464 64.2543 5.38595C64.3308 5.48726 64.3434 5.60454 64.2893 5.71199C64.2352 5.81944 64.1189 5.90827 63.966 5.95892C61.3059 6.85191 58.7789 7.90916 56.4187 9.11664C56.2979 9.17793 56.1476 9.2081 55.9958 9.20153H56.0343ZM134.736 3.91319C131.685 3.86878 128.642 3.69013 125.626 3.37842C125.456 3.36266 125.302 3.30283 125.199 3.21209C125.096 3.12135 125.051 3.00714 125.075 2.89458C125.099 2.78201 125.189 2.68032 125.326 2.61187C125.463 2.54341 125.635 2.51381 125.805 2.52957C128.774 2.83879 131.771 3.01461 134.775 3.05585C134.945 3.05585 135.108 3.10057 135.228 3.18017C135.348 3.25976 135.416 3.36771 135.416 3.48028C135.416 3.59284 135.348 3.7008 135.228 3.78039C135.108 3.85999 134.945 3.9047 134.775 3.9047L134.736 3.91319ZM72.0259 3.69249C71.9417 3.70141 71.8558 3.69926 71.7729 3.68617C71.69 3.67308 71.6118 3.64931 71.5428 3.6162C71.4738 3.5831 71.4153 3.54131 71.3707 3.49323C71.326 3.44514 71.2961 3.39171 71.2827 3.33598C71.2692 3.28024 71.2725 3.22329 71.2922 3.16839C71.312 3.11348 71.3479 3.06169 71.3978 3.01597C71.4478 2.97026 71.5109 2.93151 71.5835 2.90194C71.656 2.87237 71.7367 2.85256 71.8208 2.84364C74.7203 2.22014 77.6726 1.70996 80.6623 1.31572C80.7457 1.30466 80.8315 1.30469 80.9149 1.31583C80.9982 1.32696 81.0774 1.34897 81.1477 1.38057C81.2181 1.41217 81.2782 1.45274 81.3247 1.4999C81.3712 1.54705 81.403 1.59986 81.4184 1.65525C81.437 1.70944 81.4386 1.76558 81.4233 1.82021C81.4079 1.87484 81.3758 1.9268 81.329 1.97292C81.2822 2.01903 81.2216 2.05832 81.1511 2.08836C81.0805 2.11839 81.0014 2.13855 80.9186 2.14759C77.9773 2.5374 75.0723 3.03905 72.2181 3.65005L72.0259 3.69249ZM116.772 2.3598H116.656C113.901 2.02026 110.788 1.63828 107.687 1.34967C107.521 1.33286 107.372 1.27366 107.271 1.18479C107.17 1.09591 107.126 0.984443 107.148 0.874313C107.158 0.818705 107.184 0.764923 107.226 0.71619C107.267 0.667458 107.323 0.62478 107.39 0.590701C107.457 0.556622 107.534 0.531848 107.615 0.517863C107.697 0.503878 107.782 0.500967 107.866 0.509308C110.941 0.797917 114.068 1.18839 116.836 1.52793C117.002 1.54857 117.149 1.6119 117.245 1.70413C117.341 1.79636 117.378 1.90999 117.348 2.02026C117.326 2.11473 117.258 2.20177 117.154 2.26779C117.049 2.33382 116.915 2.37512 116.772 2.38526V2.3598ZM89.7601 1.26478C89.5902 1.27154 89.4232 1.2333 89.2958 1.15848C89.1685 1.08366 89.0912 0.978394 89.081 0.865829C89.0708 0.753265 89.1285 0.642626 89.2415 0.558255C89.3544 0.473884 89.5133 0.422688 89.6832 0.415934C91.3106 0.297095 93.0532 0.186747 94.8087 0.0933739C95.9363 0.0339545 97.128 0 98.3453 0H98.7682C98.8523 0.00110364 98.9353 0.0131796 99.0124 0.0355349C99.0895 0.0578903 99.1592 0.0900863 99.2175 0.130288C99.2758 0.17049 99.3216 0.217912 99.3522 0.269837C99.3829 0.321763 99.3978 0.377176 99.3961 0.432915C99.3866 0.542639 99.3157 0.646079 99.1972 0.723003C99.0787 0.799928 98.9212 0.844801 98.7554 0.848849H98.3453C97.1665 0.848849 96.0132 0.848848 94.8984 0.933732C93.1301 1.02711 91.4131 1.13746 89.7729 1.26478H89.7601Z" fill="white"/>
<path opacity="0.6" d="M86.3746 150C84.8498 149.958 83.3377 149.881 81.877 149.788C81.7932 149.784 81.7116 149.768 81.637 149.743C81.5624 149.717 81.4962 149.682 81.4424 149.639C81.3886 149.597 81.3484 149.547 81.324 149.494C81.2996 149.441 81.2915 149.385 81.3003 149.329C81.3049 149.273 81.3269 149.219 81.3648 149.169C81.4027 149.119 81.4558 149.074 81.5208 149.039C81.5857 149.003 81.6611 148.976 81.7422 148.96C81.8233 148.945 81.9085 148.94 81.9923 148.947C83.4403 149.041 84.9267 149.109 86.4387 149.151C86.6086 149.151 86.7715 149.196 86.8917 149.275C87.0119 149.355 87.0794 149.463 87.0794 149.576C87.0794 149.688 87.0119 149.796 86.8917 149.876C86.7715 149.955 86.6086 150 86.4387 150H86.3746Z" fill="white"/>
</g>
<path opacity="0.8" d="M137.571 18.75H138.655V19.5765H135.602V18.75H137.571ZM142.471 18.8271L145.523 18.9483V19.7748L142.471 19.6536V18.8271ZM131.786 18.8271V19.6536C130.779 19.6536 129.764 19.7197 128.734 19.7748V18.9483C129.757 18.9263 130.772 18.8932 131.779 18.8602L131.786 18.8271ZM124.918 19.1687V19.9952L121.866 20.2157V19.3891L124.918 19.1687ZM149.339 19.1687C150.369 19.2569 151.392 19.3561 152.391 19.4663L152.353 20.2928C151.354 20.1826 150.346 20.0834 149.301 19.9952L149.339 19.1687ZM118.05 19.7087L118.088 20.5352L115.035 20.8438L114.99 20.0173L118.05 19.7087ZM156.207 19.9512C157.245 20.1054 158.252 20.2708 159.26 20.4581L159.191 21.2736C158.207 21.0973 157.192 20.932 156.138 20.7777L156.207 19.9512ZM111.182 20.4581L111.235 21.2846L108.182 21.6703L108.129 20.8438L111.182 20.4581ZM163.014 21.2185C164.045 21.4499 165.052 21.7034 166.067 21.9679L165.96 22.7723C164.983 22.5189 163.984 22.2654 162.961 22.034L163.014 21.2185ZM104.344 21.3728L104.397 22.1993L101.345 22.6511L101.284 21.8246L104.344 21.3728ZM97.4755 22.4748L97.5442 23.3013L96.7811 23.4336C96.0179 23.5548 95.2929 23.687 94.5527 23.8303L94.4764 23.0148L96.72 22.607L97.4755 22.4748ZM169.791 23.1581C170.798 23.4887 171.798 23.8413 172.76 24.2601L172.615 25.0646C171.661 24.6899 170.669 24.3482 169.661 24.0176L169.791 23.1581ZM90.7293 23.8303L90.8209 24.6458C89.8135 24.8882 88.8138 25.1307 87.8141 25.4062L87.7073 24.5907C88.7044 24.3262 89.7118 24.0727 90.7293 23.8303ZM83.9526 25.6597L84.0671 26.4641C83.075 26.7727 82.0829 27.0813 81.0908 27.4119L80.9687 26.6074C81.9303 26.2768 82.9223 25.9682 83.9221 25.6597H83.9526ZM176.469 25.7258C177.453 26.1776 178.43 26.6625 179.369 27.1584L179.17 27.9298C178.239 27.4449 177.27 26.96 176.293 26.5082L176.469 25.7258ZM77.2598 27.9298L77.4048 28.7233C76.4204 29.087 75.4359 29.4617 74.4591 29.8253L74.3065 29.0319L77.2598 27.9298ZM182.925 29.2412C183.871 29.8474 184.802 30.4865 185.695 31.1478L185.436 31.8861C184.55 31.2249 183.627 30.5967 182.696 30.0017L182.925 29.2412ZM70.6357 30.5637L70.796 31.3571L67.8884 32.6355L67.7205 31.8531C68.6516 31.4012 69.6207 30.9714 70.5976 30.5527L70.6357 30.5637ZM64.0803 33.5502L64.2635 34.3326C63.2943 34.8065 62.3327 35.2804 61.3788 35.7652L61.188 34.9828L64.0803 33.5502ZM189.038 33.8587C189.915 34.6412 190.778 35.4677 191.594 36.3163L191.258 36.9885C190.449 36.151 189.602 35.3355 188.732 34.564L189.038 33.8587ZM57.5936 36.8562L57.792 37.6387C56.8381 38.1456 55.8842 38.6636 54.9379 39.1926L54.7318 38.4211C55.6247 37.8811 56.5939 37.3632 57.5554 36.8452L57.5936 36.8562ZM194.563 39.6885C195.341 40.6582 196.089 41.6721 196.806 42.73L196.394 43.3031C195.692 42.2782 194.952 41.2644 194.189 40.3166L194.563 39.6885ZM51.1374 40.3938L51.3587 41.1542C50.4048 41.7162 49.4661 42.2562 48.5351 42.8403L48.3138 42.0799C49.2448 41.5619 50.1911 40.9999 51.1374 40.4489V40.3938ZM44.8033 44.2509L45.0322 45.0112L42.2391 46.7965L42.0102 46.0472C42.9259 45.4961 43.857 44.901 44.8033 44.306V44.2509ZM199.363 46.8626C200.011 48.0291 200.584 49.2797 201.072 50.5985L200.569 50.9842C200.097 49.7096 199.543 48.5029 198.913 47.3806L199.363 46.8626ZM38.5379 48.3614L38.7745 49.1108C37.8511 49.7389 36.9276 50.3671 36.0195 51.0063L35.7753 50.2569C36.6834 49.6728 37.5992 49.0447 38.5379 48.4165V48.3614ZM32.3411 52.6924L32.6006 53.4307L29.8762 55.4254L29.6167 54.687L32.3411 52.6924ZM202.37 55.8882C202.498 56.884 202.562 57.8949 202.561 58.9078C202.561 59.4037 202.561 59.8886 202.515 60.3845L201.95 60.3184C201.95 59.8445 201.988 59.3817 201.988 58.9078C201.987 57.9472 201.928 56.9885 201.813 56.0425L202.37 55.8882ZM26.2284 57.3209L26.4954 58.0482C25.5797 58.7535 24.6792 59.4478 23.8015 60.1421L23.5268 59.4147L26.2284 57.3209ZM20.1842 62.0816L20.459 62.798L17.8032 65.002L17.5209 64.2857C18.3832 63.5253 19.2685 62.831 20.1842 62.0596V62.0816ZM201.049 65.5971L201.584 65.9057C201.202 67.2929 200.74 68.6311 200.202 69.906L199.714 69.4762C200.244 68.2347 200.698 66.9295 201.072 65.5751L201.049 65.5971ZM14.1936 67.0408L14.4836 67.7571C13.5754 68.5285 12.6978 69.2889 11.866 70.0162L11.5683 69.3109L14.1936 67.0408ZM8.30972 72.2093L8.61497 72.9146C7.68393 73.7521 6.82159 74.5456 6.02792 75.2729L5.72264 74.5786C6.53159 73.8513 7.39395 73.0358 8.30972 72.1872V72.2093ZM197.524 73.8513L197.959 74.3913C197.325 75.4933 196.623 76.5953 195.868 77.6974L195.463 77.1023C196.211 76.0002 196.898 74.9533 197.524 73.8513ZM2.54034 77.5872L2.86086 78.2814C1.21246 79.8683 0.334869 80.772 0.32724 80.772L-0.000930786 80.0998C-0.000930786 80.0998 0.884323 79.1851 2.54034 77.5872ZM192.647 80.7279L193.014 81.3671C192.25 82.2708 191.442 83.1965 190.594 84.1001L190.259 83.4389C191.098 82.5353 191.899 81.6316 192.647 80.7279ZM187.137 86.5687L187.45 87.2629C186.611 88.0454 185.733 88.8389 184.848 89.6103L184.55 88.894C185.436 88.1776 186.306 87.3511 187.137 86.5687ZM181.238 91.616L181.513 92.3433C180.628 93.0266 179.712 93.7098 178.789 94.371L178.537 93.6327C179.453 92.9714 180.361 92.2882 181.238 91.616ZM175.087 95.9579L175.316 96.7183C174.37 97.3245 173.416 97.8975 172.493 98.4375L172.279 97.6661C173.202 97.1371 174.149 96.5641 175.087 95.9579Z" fill="#F98731"/>
</g>
<path d="M60.721 59.5562L176.608 58.5089L179.999 134.999L60.002 134.166L60.721 59.5562Z" fill="#F98731"/>
<path d="M60.7207 59.572L115.465 16.3725C116.59 15.4847 117.995 15 119.445 15C120.894 15 122.299 15.4847 123.424 16.3725L176.6 58.5168" fill="#F98731"/>
<g opacity="0.3">
<path opacity="0.3" d="M60.7207 59.572L115.465 16.3725C116.59 15.4847 117.995 15 119.445 15C120.894 15 122.299 15.4847 123.424 16.3725L176.6 58.5168" fill="black"/>
</g>
<path d="M60.0015 134.15C59.8626 134.015 69.112 124.161 80.6738 112.141C92.2355 100.122 101.73 90.5138 101.877 90.6249C102.024 90.7359 92.7666 100.606 81.1967 112.633C69.6268 124.661 60.1486 134.292 60.0015 134.15Z" fill="#263238"/>
<path d="M179.996 134.999C179.849 135.133 170.796 125.478 159.774 113.522C148.751 101.566 139.935 91.7039 140.082 91.5769C140.229 91.45 149.282 101.097 160.313 113.062C171.344 125.026 180.144 134.872 179.996 134.999Z" fill="#263238"/>
<g opacity="0.5">
<path opacity="0.5" d="M176.608 58.5088L118.513 103.763L60.7207 59.5561" fill="black"/>
</g>
<path d="M66.572 63.7294L66.3105 28.5826L167.784 27.218L169.002 64.1895L118.506 103.168L66.572 63.7294Z" fill="#FAFAFA"/>
<path d="M66.5713 63.7292C66.5713 63.7292 66.9063 63.9593 67.5355 64.4274L70.2972 66.4981L80.8049 74.4319C89.8582 81.2947 102.866 91.0929 118.611 103.057H118.399L168.87 64.0466L168.797 64.2132C168.56 57.16 168.315 49.7578 168.069 42.2286C167.898 37.1589 167.734 32.1448 167.571 27.2338L167.783 27.4321L66.318 28.7332L66.4488 28.5984C66.4978 39.6501 66.5468 48.4329 66.5713 54.4467C66.5713 57.4536 66.5713 59.7702 66.5713 61.3491C66.5713 62.1425 66.5713 62.7216 66.5713 63.1342C66.5713 63.5467 66.5713 63.7451 66.5713 63.7451C66.5713 63.7451 66.5713 63.5467 66.5713 63.1501C66.5713 62.7534 66.5713 62.1504 66.5713 61.3808C66.5713 59.7941 66.5223 57.4933 66.4896 54.4943C66.4324 48.4567 66.3425 39.6739 66.2363 28.5984V28.4714H66.3671L167.775 27.0433H167.988V27.2496C168.151 32.1606 168.315 37.1669 168.486 42.2366C168.731 49.7657 168.976 57.168 169.205 64.2211V64.3242L169.124 64.3877L118.595 103.343L118.489 103.43L118.383 103.343L80.617 74.5668L70.191 66.5854L67.4701 64.4909L66.5713 63.7292Z" fill="#263238"/>
<path d="M151.784 44.942C151.784 45.0531 136.26 45.2673 117.124 45.4181C97.9875 45.5688 82.4629 45.6005 82.4629 45.4895C82.4629 45.3784 97.9875 45.1642 117.124 45.0055C136.26 44.8468 151.784 44.823 151.784 44.942Z" fill="#263238"/>
<path d="M151.8 54.8673C151.8 54.9784 136.275 55.2005 117.147 55.3512C98.0191 55.502 82.4863 55.5337 82.4863 55.4147C82.4863 55.2957 98.0109 55.0894 117.147 54.9387C136.283 54.788 151.8 54.7562 151.8 54.8673Z" fill="#263238"/>
<path d="M151.823 66.3078C151.823 66.4269 136.298 66.6411 117.17 66.7918C98.0425 66.9426 82.5098 66.9743 82.5098 66.8553C82.5098 66.7363 98.0343 66.53 117.17 66.3792C136.307 66.2285 151.823 66.1968 151.823 66.3078Z" fill="#263238"/>
<path d="M151.849 77.7485C151.849 77.8675 137.052 78.0737 118.79 78.2166C100.528 78.3594 85.7227 78.3911 85.7227 78.2721C85.7227 78.1531 100.52 77.9468 118.79 77.804C137.06 77.6612 151.849 77.6374 151.849 77.7485Z" fill="#263238"/>
<path d="M138.909 87.8163C138.776 87.8524 138.638 87.8684 138.501 87.8639L137.332 87.9115L133.051 88.0146L118.907 88.2685C113.383 88.3637 108.375 88.3954 104.755 88.3954H100.473H99.305C99.1677 88.399 99.0304 88.3856 98.8965 88.3558C99.0294 88.3197 99.1671 88.3037 99.305 88.3082L100.465 88.2606L104.755 88.1574L118.899 87.9115C124.422 87.8084 129.423 87.7766 133.042 87.7766H137.332H138.501C138.638 87.7767 138.775 87.79 138.909 87.8163Z" fill="#263238"/>
<path d="M125.833 97.4955C123.388 97.7093 120.932 97.7834 118.479 97.7177C116.026 97.7928 113.57 97.7292 111.125 97.5273C113.57 97.3182 116.025 97.2441 118.479 97.3051C120.932 97.2347 123.387 97.2983 125.833 97.4955Z" fill="#263238"/>
<circle opacity="0.95" cx="119.999" cy="52.1999" r="16.8" fill="#61C5BA"/>
<path d="M129.378 45.3609C128.88 44.8797 128.09 44.8797 127.592 45.3609L115.644 57.309L111.41 53.0751C110.916 52.5644 110.102 52.5503 109.592 53.0436C109.081 53.5369 109.067 54.3509 109.56 54.8616C109.57 54.8723 109.581 54.8828 109.592 54.8931L114.735 60.036C115.237 60.538 116.051 60.538 116.553 60.036L129.41 47.1788C129.903 46.6681 129.889 45.8542 129.378 45.3609Z" fill="white"/>
</svg>
